<svg width="1536" height="1536" viewBox="0 0 1536 1536" fill="none" xmlns="http://www.w3.org/2000/svg">
<path d="M0 0H1536V1536H0V0Z" fill="#FFC300"/>
<path fill-rule="evenodd" clip-rule="evenodd" d="M1104.91 517.957H524.427C502.101 517.957 479.786 540.283 479.786 562.609V868.195C473.108 977.709 520.786 978.28 575.336 969.685C832.075 929.237 870.856 954.042 1104.91 954.042C1149.3 954.042 1149.56 897.5 1149.57 873.302C1149.58 849.104 1149.57 562.609 1149.57 562.609C1149.57 534.347 1127.23 517.957 1104.91 517.957ZM461.668 384C362.407 384 345.818 425.165 345.818 536.406V654.154C345.818 654.154 345.807 723.292 345.818 765.744C345.83 808.196 345.83 852.848 299.259 875.174C256.525 897.5 191.321 918.398 189.535 942.153C189.535 988.311 323.497 897.5 345.824 947.179C368.146 1120.76 32.3709 1038.14 100.236 1131.35C237.753 1210.23 397.332 1009.98 534.388 1106.86C546.759 1187.74 301.177 1187.74 390.482 1254.72C502.112 1321.7 714.675 1098.05 816.029 1082.01C936.375 1057.94 1032.65 1082.01 1166.1 1094.41C1263.76 1094.41 1283.51 1051.63 1283.51 935.009V540.283C1283.51 425.453 1244.55 384 1166.1 384H461.668Z" fill="white"/>
<path d="M703.706 728.992C703.706 768.871 671.378 801.2 631.498 801.2C591.619 801.2 559.291 768.871 559.291 728.992C559.291 689.113 591.619 656.784 631.498 656.784C671.378 656.784 703.706 689.113 703.706 728.992Z" fill="white"/>
<path d="M896.25 728.992C896.25 768.871 863.922 801.2 824.042 801.2C784.163 801.2 751.834 768.871 751.834 728.992C751.834 689.113 784.163 656.784 824.042 656.784C863.922 656.784 896.25 689.113 896.25 728.992Z" fill="white"/>
<path d="M1088.81 728.992C1088.81 768.871 1056.48 801.2 1016.6 801.2C976.726 801.2 944.397 768.871 944.397 728.992C944.397 689.113 976.726 656.784 1016.6 656.784C1056.48 656.784 1088.81 689.113 1088.81 728.992Z" fill="white"/>
</svg>
